<?xml version="1.0" encoding="UTF-8" standalone="no"?>
<svg width="100px" height="100px" viewBox="0 0 100 100" version="1.1" xmlns="http://www.w3.org/2000/svg" xmlns:xlink="http://www.w3.org/1999/xlink" xmlns:sketch="http://www.bohemiancoding.com/sketch/ns">
    <!-- Generator: Sketch 3.3.2 (12043) - http://www.bohemiancoding.com/sketch -->
    <title>html25</title>
    <desc>Created with Sketch.</desc>
    <defs></defs>
    <g id="Page-1" stroke="none" stroke-width="1" fill="none" fill-rule="evenodd" sketch:type="MSPage">
        <g id="Index" sketch:type="MSArtboardGroup" transform="translate(-1325.000000, -5672.000000)" fill="#DADADA">
            <g id="LogosList" sketch:type="MSLayerGroup" transform="translate(0.000000, 5605.000000)">
                <g id="Logos" transform="translate(228.000000, 67.000000)" sketch:type="MSShapeGroup">
                    <g id="html25" transform="translate(1097.000000, 0.000000)">
                        <path d="M0,0.427272727 L0,99.5772727 L100,99.5772727 L100,0.427272727 L0,0.427272727 L0,0.427272727 Z M91.7590909,8.66818182 L91.7590909,91.3409091 L8.24090909,91.3409091 L8.24090909,8.66818182 C15.4,8.66363636 84.5954545,8.66363636 91.7590909,8.66818182 L91.7590909,8.66818182 Z" id="Shape"></path>
                        <path d="M39.2363636,64.2909091 L12.9545455,52.8545455 L12.9545455,46.5272727 L39.2363636,35.15 L39.2363636,42.6045455 L20.9227273,49.6181818 L39.2363636,56.9 L39.2363636,64.2909091 L39.2363636,64.2909091 Z" id="Shape"></path>
                        <path d="M41.6727273,69.3090909 L51.1863636,29.6818182 L56.6954545,29.6818182 L47.0772727,69.3090909 L41.6727273,69.3090909 L41.6727273,69.3090909 Z" id="Shape"></path>
                        <path d="M59.0954545,64.2909091 L59.0954545,56.9045455 L77.4454545,49.6636364 L59.0954545,42.5090909 L59.0954545,35.1545455 L85.4045455,46.5409091 L85.4045455,52.8136364 C85.4045455,52.8181818 59.0954545,64.2909091 59.0954545,64.2909091 L59.0954545,64.2909091 Z" id="Shape"></path>
                    </g>
                </g>
            </g>
        </g>
    </g>
</svg>