<?xml version="1.0" encoding="UTF-8" standalone="no"?>
<svg width="50px" height="60px" viewBox="0 0 50 60" version="1.1" xmlns="http://www.w3.org/2000/svg" xmlns:xlink="http://www.w3.org/1999/xlink" xmlns:sketch="http://www.bohemiancoding.com/sketch/ns">
    <!-- Generator: Sketch 3.3.2 (12043) - http://www.bohemiancoding.com/sketch -->
    <title>Bee</title>
    <desc>Created with Sketch.</desc>
    <defs></defs>
    <g id="Page-1" stroke="none" stroke-width="1" fill="none" fill-rule="evenodd" sketch:type="MSPage">
        <g id="Artboard-1" sketch:type="MSArtboardGroup" transform="translate(-87.000000, -183.000000)">
            <g id="Bee" sketch:type="MSLayerGroup" transform="translate(87.000000, 183.000000)">
                <path d="M12.67092,42.1296415 C11.9493894,46.8434174 9.43293965,50.3225806 6.43939394,50.3225806 C2.88301487,50.3225806 0,45.4121553 0,39.3548387 C0,34.6695693 1.72486645,30.6704685 4.15204474,29.0991776 L17.3122073,17.8758475 L12.67092,42.1296415 Z" id="Oval-5" fill="#26923C" sketch:type="MSShapeGroup"></path>
                <path d="M45.2466776,42.1296415 C44.525147,46.8434174 42.0086972,50.3225806 39.0151515,50.3225806 C35.4587724,50.3225806 32.5757576,45.4121553 32.5757576,39.3548387 C32.5757576,34.6695693 34.300624,30.6704685 36.7278023,29.0991776 L49.8879649,17.8758475 L45.2466776,42.1296415 Z" id="Oval-5" fill="#26923C" sketch:type="MSShapeGroup" transform="translate(41.287879, 34.193548) scale(-1, 1) translate(-41.287879, -34.193548) "></path>
                <path d="M17.0454545,26.4516129 L17.0454545,33.5483871 L17.0454545,33.5483871 L32.9545455,33.5483871 L32.9545455,26.4516129 L17.0454545,26.4516129 Z M17.0918366,20 C17.5224658,16.0051107 20.8987717,12.9032258 25,12.9032258 C29.0925388,12.9032258 32.4758559,16.0096389 32.9079439,20 L17.0918366,20 Z M17.0454545,40 L17.0454545,47.0967742 L17.0454545,47.0967742 L32.9545455,47.0967742 L32.9545455,40 L17.0454545,40 L17.0454545,40 Z M17.1888244,53.5483871 C17.8956036,57.2234495 21.1308462,60 25,60 C28.8776018,60 32.1071812,57.2271639 32.8118071,53.5483871 L17.1888244,53.5483871 L17.1888244,53.5483871 Z" id="Rectangle-1" fill="#F3B210" sketch:type="MSShapeGroup"></path>
                <ellipse id="Oval-3" fill="#F8B0BC" sketch:type="MSShapeGroup" cx="21.2121212" cy="6.4516129" rx="3.78787879" ry="6.4516129"></ellipse>
                <ellipse id="Oval-3" fill="#F8B0BC" sketch:type="MSShapeGroup" cx="29.1666667" cy="6.4516129" rx="3.78787879" ry="6.4516129"></ellipse>
            </g>
        </g>
    </g>
</svg>