<?xml version="1.0" encoding="UTF-8" standalone="no"?>
<svg width="51px" height="50px" viewBox="0 0 51 50" version="1.1" xmlns="http://www.w3.org/2000/svg" xmlns:xlink="http://www.w3.org/1999/xlink" xmlns:sketch="http://www.bohemiancoding.com/sketch/ns">
    <!-- Generator: Sketch 3.3.2 (12043) - http://www.bohemiancoding.com/sketch -->
    <title>html3</title>
    <desc>Created with Sketch.</desc>
    <defs></defs>
    <g id="Page-1" stroke="none" stroke-width="1" fill="none" fill-rule="evenodd" sketch:type="MSPage">
        <g id="Index" sketch:type="MSArtboardGroup" transform="translate(-228.000000, -5672.000000)" fill="#DADADA">
            <g id="LogosList" sketch:type="MSLayerGroup" transform="translate(0.000000, 5605.000000)">
                <g id="Logos" transform="translate(228.000000, 67.000000)" sketch:type="MSShapeGroup">
                    <g id="html3">
                        <path d="M0.050370342,0 L4.59910151,44.9453184 L25.0192183,49.9375468 L45.4929209,44.9378277 L50.0503703,0 L0.050370342,0 L0.050370342,0 Z M40.1474201,14.6998127 L40.125837,14.6998127 L16.1952136,14.6998127 L16.7656257,20.3446629 L39.5784965,20.3446629 L37.8597113,37.2673221 L25.0492008,40.3970037 L25.0364423,40.4007491 L25.0278303,40.4007491 L25.0211321,40.4007491 L12.1977568,37.2673221 L11.3211401,28.6105805 L17.6059869,28.6105805 L18.0515781,33.0109551 L25.0212384,34.6648876 L25.0366549,34.6611423 L32.0102491,33.0033708 L32.7340824,25.8565543 L11.0413033,25.8565543 L9.35271323,9.18801498 L40.7070939,9.18801498 L40.1474201,14.6998127 L40.1474201,14.6998127 Z" id="Shape"></path>
                    </g>
                </g>
            </g>
        </g>
    </g>
</svg>