<?xml version="1.0" encoding="UTF-8" standalone="no"?>
<svg width="50px" height="50px" viewBox="0 0 50 50" version="1.1" xmlns="http://www.w3.org/2000/svg" xmlns:xlink="http://www.w3.org/1999/xlink" xmlns:sketch="http://www.bohemiancoding.com/sketch/ns">
    <!-- Generator: Sketch 3.3.2 (12043) - http://www.bohemiancoding.com/sketch -->
    <title>M</title>
    <desc>Created with Sketch.</desc>
    <defs></defs>
    <g id="Page-1" stroke="none" stroke-width="1" fill="none" fill-rule="evenodd" sketch:type="MSPage">
        <g id="Artboard-1" sketch:type="MSArtboardGroup" transform="translate(-156.000000, -185.000000)" fill="#4B81C7">
            <path d="M156,226 L156,228.5 L156,228.5 L171.710538,228.5 L171.710538,225 L163.522124,225 L156,225 L156,226 Z M198.477876,225 L190.289462,225 L190.289462,225 L190.289462,228.5 L190.289462,228.5 L206,228.5 L206,226 L206,225 L198.477876,225 L198.477876,225 Z M156,231.5 L156,235 L171.710538,235 L171.710538,235 L171.710538,231.5 L156,231.5 L156,231.5 Z M178.808757,228.5 L177.689815,225 L177.689815,225 L184.182518,225 L183.039686,228.5 L178.808757,228.5 L178.808757,228.5 Z M179.76785,231.5 L180.885365,234.995537 L180.877013,235 L180.917282,235 L182.060115,231.5 L179.76785,231.5 L179.76785,231.5 Z M190.289462,231.5 L190.289462,235 L190.289462,235 L206,235 L206,231.5 L190.289462,231.5 L190.289462,231.5 Z M162.19469,222 L162.19469,218 L162.19469,218 L171.710538,218 L171.710538,222 L162.19469,222 L162.19469,222 Z M176.730723,222 L175.451932,218 L186.468184,218 L185.162089,222 L176.730723,222 L176.730723,222 Z M190.289462,222 L190.289462,218 L199.80531,218 L199.80531,222 L190.289462,222 Z M162.19469,215 L162.19469,211.5 L162.19469,211.5 L171.710538,211.5 L171.710538,215 L162.19469,215 L162.19469,215 Z M174.492839,215 L173.373897,211.5 L173.373897,211.5 L188.590588,211.5 L187.447755,215 L174.492839,215 L174.492839,215 Z M190.289462,215 L190.289462,211.5 L199.80531,211.5 L199.80531,215 L190.289462,215 L190.289462,215 Z M162.19469,208.5 L162.19469,204.5 L162.19469,204.5 L179.685841,204.5 L180.853982,208.5 L172.414804,208.5 L171.710538,206.297087 L171.710538,208.5 L162.19469,208.5 Z M189.570158,208.5 L190.289462,206.297087 L190.289462,208.5 L199.80531,208.5 L199.80531,204.5 L182.314159,204.5 L181.146018,208.5 L189.570158,208.5 L189.570158,208.5 Z M162.19469,201.5 L162.19469,198 L162.19469,198 L177.787611,198 L178.809735,201.5 L162.19469,201.5 Z M199.80531,201.5 L199.80531,198 L184.212389,198 L183.190265,201.5 L199.80531,201.5 L199.80531,201.5 Z M159.097345,195 L156,195 L156,191.5 L156,191.5 L175.889381,191.5 L176.911504,195 L159.097345,195 L159.097345,195 Z M202.902655,195 L206,195 L206,191.5 L186.110619,191.5 L185.088496,195 L202.902655,195 L202.902655,195 Z M156,188.5 L156,185 L173.99115,185 L175.013274,188.5 L156,188.5 L156,188.5 Z M186.986726,188.5 L188.00885,185 L188.00885,185 L206,185 L206,188.5 L186.986726,188.5 L186.986726,188.5 Z" id="M" sketch:type="MSShapeGroup"></path>
        </g>
    </g>
</svg>