<?xml version="1.0" encoding="UTF-8" standalone="no"?>
<svg width="50px" height="50px" viewBox="0 0 50 50" version="1.1" xmlns="http://www.w3.org/2000/svg" xmlns:xlink="http://www.w3.org/1999/xlink" xmlns:sketch="http://www.bohemiancoding.com/sketch/ns">
    <!-- Generator: Sketch 3.3.2 (12043) - http://www.bohemiancoding.com/sketch -->
    <title>Fill 41</title>
    <desc>Created with Sketch.</desc>
    <defs></defs>
    <g id="Page-1" stroke="none" stroke-width="1" fill="none" fill-rule="evenodd" sketch:type="MSPage">
        <path d="M10.8333333,41.6666667 C11.0466667,41.6666667 11.26,41.585 11.4225,41.4225 L19.1666667,33.6783333 L25.2441667,39.7558333 C25.4591667,39.9716667 25.7758333,40.0508333 26.0675,39.9666667 C26.36,39.88 26.5825,39.6425 26.6475,39.345 L32.1741667,14.0783333 L39.4425,20.6191667 C39.6483333,20.8041667 39.9316667,20.8741667 40.2,20.8091667 C40.4683333,20.7425 40.6866667,20.5475 40.7816667,20.2883333 L46.615,4.455 C46.7741667,4.0225 46.5533333,3.54416667 46.1216667,3.385 C45.6883333,3.22583333 45.21,3.44666667 45.0516667,3.87833333 L39.6433333,18.5583333 L32.2241667,11.8808333 C32.0033333,11.6816667 31.6925,11.6158333 31.4116667,11.7066667 C31.1283333,11.7975 30.9158333,12.0316667 30.8525,12.3216667 L25.345,37.5 L19.7558333,31.9108333 C19.43,31.585 18.9033333,31.585 18.5775,31.9108333 L10.2441667,40.2441667 C9.91833333,40.57 9.91833333,41.0966667 10.2441667,41.4225 C10.4066667,41.585 10.62,41.6666667 10.8333333,41.6666667 L10.8333333,41.6666667 Z M6.66666667,43.3333333 L6.66666667,0 L5,0 L5,43.3333333 L0,43.3333333 L0,45 L5,45 L5,50 L6.66666667,50 L6.66666667,45 L50,45 L50,43.3333333 L6.66666667,43.3333333 L6.66666667,43.3333333 Z" id="Fill-41" fill="#0A0B09" sketch:type="MSShapeGroup"></path>
    </g>
</svg>