<?xml version="1.0" encoding="UTF-8" standalone="no"?>
<svg width="50px" height="50px" viewBox="0 0 50 50" version="1.1" xmlns="http://www.w3.org/2000/svg" xmlns:xlink="http://www.w3.org/1999/xlink" xmlns:sketch="http://www.bohemiancoding.com/sketch/ns">
    <!-- Generator: Sketch 3.3.2 (12043) - http://www.bohemiancoding.com/sketch -->
    <title>Fill 14</title>
    <desc>Created with Sketch.</desc>
    <defs></defs>
    <g id="Page-1" stroke="none" stroke-width="1" fill="none" fill-rule="evenodd" sketch:type="MSPage">
        <path d="M25,48.3333333 C12.1333333,48.3333333 1.66666667,37.8658333 1.66666667,25 C1.66666667,12.1341667 12.1333333,1.66666667 25,1.66666667 C37.8666667,1.66666667 48.3333333,12.1341667 48.3333333,25 C48.3333333,37.8658333 37.8666667,48.3333333 25,48.3333333 L25,48.3333333 Z M25,0 C11.2166667,0 0,11.215 0,25 C0,38.785 11.2166667,50 25,50 C38.7833333,50 50,38.785 50,25 C50,11.215 38.7833333,0 25,0 L25,0 Z M25,12.5 C27.175,12.5 30.8333333,13.1491667 30.8333333,17.5 C30.8333333,17.96 31.2083333,18.3333333 31.6666667,18.3333333 C32.125,18.3333333 32.5,17.96 32.5,17.5 C32.5,13.5791667 30.025,11.1433333 25.8333333,10.8616667 L25.8333333,8.33333333 C25.8333333,7.87333333 25.4583333,7.5 25,7.5 C24.5416667,7.5 24.1666667,7.87333333 24.1666667,8.33333333 L24.1666667,10.8616667 C19.975,11.1433333 17.5,13.5791667 17.5,17.5 C17.5,22.0008333 19.9416667,23.4308333 24.625,25.77 C29.3416667,28.1266667 30.8333333,29.0375 30.8333333,32.5 C30.8333333,36.8508333 27.175,37.5 25,37.5 C22.825,37.5 19.1666667,36.8508333 19.1666667,32.5 C19.1666667,32.04 18.7916667,31.6666667 18.3333333,31.6666667 C17.875,31.6666667 17.5,32.04 17.5,32.5 C17.5,36.4208333 19.975,38.8566667 24.1666667,39.1383333 L24.1666667,41.6666667 C24.1666667,42.1266667 24.5416667,42.5 25,42.5 C25.4583333,42.5 25.8333333,42.1266667 25.8333333,41.6666667 L25.8333333,39.1383333 C30.025,38.8566667 32.5,36.4208333 32.5,32.5 C32.5,28.04 30.1833333,26.685 25.3666667,24.2791667 C20.425,21.8066667 19.1666667,20.8183333 19.1666667,17.5 C19.1666667,13.1491667 22.825,12.5 25,12.5 L25,12.5 Z" id="Fill-14" fill="#0A0B09" sketch:type="MSShapeGroup"></path>
    </g>
</svg>